<?xml version="1.0" encoding="UTF-8" standalone="no"?>
<svg xmlns="http://www.w3.org/2000/svg" width="320" height="100" viewBox="0 0 320 100">
  <style>
    .logo-text { fill: #ffffff; }
    .logo-icon { fill: #ffffff; }
    .subtitle { fill: #ffffff; font-size: 12px; }
  </style>
  
  <!-- GovCIO logo and text in white -->
  <g>
    <!-- Stylized icon/flower -->
    <path class="logo-icon" d="M50.8,30c-1.5,2.6-3,5.2-4.6,7.7c-0.9,1.5-2.2,2.2-3.9,2.2c-2.3,0-4.1-1.5-4.1-3.9c0-0.3,0-0.6,0.1-0.9 c0.8-3.8,5.6-8.1,9.3-9.7C49.8,24.2,51.9,27.8,50.8,30z"/>
    <path class="logo-icon" d="M38.2,41.9c-0.9-0.3-1.8-0.5-2.8-0.5c-2.6,0-5.1,1.2-6.8,3.1c-2.2,2.5-3.5,7.3-2.1,10.1c1.1,2.1,3.3,1.9,4.9,0.5 c2.5-2.2,4.4-4.9,6.2-7.6C39.1,45.3,39.8,43.2,38.2,41.9z"/>
    <path class="logo-icon" d="M38.1,56.7c-3,0.9-7.9,3.8-8.7,6.6c-0.3,1.2-0.2,2.4,0.5,3.4c1.1,1.7,3.2,2.3,5.1,1.4c1.5-0.7,2.5-1.9,3.4-3.2 c1.5-2.3,2.9-4.7,4.1-7.2C43.6,54.7,41.1,55.8,38.1,56.7z"/>
    <path class="logo-icon" d="M54.5,61c-2.4-1.7-5.4-0.1-6.6,2.3c-1.6,3.3-3.1,6.8-3.3,10.5c-0.1,2.1,1.3,3.7,3.3,4c2.2,0.3,4-1.1,4.6-3.3 C53.8,69.9,54.3,65.2,54.5,61z"/>
    <path class="logo-icon" d="M68.1,60.5c-1.8-2.9-6.7-4.4-9.8-3.3c-2.1,0.7-2.3,2.9-1.2,4.7c1.8,2.8,4,5.3,6.5,7.4c1.6,1.4,3.6,1.3,5-0.2 C70.4,67.2,69.9,63.4,68.1,60.5z"/>
    <path class="logo-icon" d="M71.3,42.3c-2.8-0.9-7.6-0.2-9.9,1.5c-1.6,1.2-1.7,3.2-0.4,4.8c2.1,2.6,4.5,4.8,7.2,6.6c1.7,1.2,3.7,0.8,4.8-0.9 C74.6,51.3,74.1,43.2,71.3,42.3z"/>
    <path class="logo-icon" d="M67.5,33.2c-1.7-1.2-3.8-0.9-5,0.9c-1.8,2.8-3.3,5.8-4.5,8.9c-0.8,2,0.1,3.8,2.1,4.4c2.5,0.7,5.8-1.5,7.2-4.5 C68.8,39.7,70.1,35.1,67.5,33.2z"/>
    <path class="logo-icon" d="M51.1,47.9c1.7,0,3.1-1.4,3.1-3.1c0-1.7-1.4-3.1-3.1-3.1c-1.7,0-3.1,1.4-3.1,3.1C48,46.5,49.4,47.9,51.1,47.9z"/>
    
    <!-- G -->
    <path class="logo-text" d="M115.6,31.8c-3.3-3.3-7.3-5-12-5c-4.7,0-8.7,1.7-12,5c-3.3,3.3-5,7.3-5,12c0,4.7,1.7,8.7,5,12 c3.3,3.3,7.3,5,12,5c3.1,0,6-0.8,8.7-2.4c2.7-1.6,4.7-3.8,6.1-6.7l-7.7-2.2c-0.9,1.6-2,2.8-3.4,3.6c-1.4,0.8-2.9,1.2-4.7,1.2 c-2.7,0-5-0.9-6.8-2.8c-1.8-1.9-2.7-4.2-2.7-7c0-2.9,0.9-5.3,2.7-7.1c1.8-1.9,4.1-2.8,6.8-2.8c2.7,0,5,0.9,6.9,2.8l5.4-5.4 C120.6,28.5,118.9,26.8,115.6,31.8z"/>
    
    <!-- o -->
    <path class="logo-text" d="M138.2,31.8c-3.3-3.3-7.3-5-12.1-5c-4.7,0-8.7,1.7-12,5c-3.3,3.3-5,7.3-5,12c0,4.7,1.7,8.6,5,11.9 c3.3,3.3,7.3,5,12,5c4.7,0,8.7-1.7,12.1-5c3.3-3.3,5-7.3,5-11.9C143.2,39.1,141.5,35.1,138.2,31.8z M133.6,50.9 c-1.9,2-4.3,3-7.3,3c-2.9,0-5.3-1-7.2-3c-1.9-2-2.9-4.4-2.9-7.2c0-2.9,1-5.3,2.9-7.3c1.9-2,4.3-3,7.2-3c2.9,0,5.3,1,7.3,3 c1.9,2,2.9,4.4,2.9,7.3C136.5,46.5,135.5,48.9,133.6,50.9z"/>
    
    <!-- v -->
    <path class="logo-text" d="M170.7,27.7l-7.3,20.4l-7.3-20.4h-9l12.3,32h8l12.3-32H170.7z"/>
    
    <!-- C -->
    <path class="logo-text" d="M210,31.8c-3.3-3.3-7.3-5-12-5c-4.7,0-8.7,1.7-12,5c-3.3,3.3-5,7.3-5,12c0,4.7,1.7,8.6,5,11.9 c3.3,3.3,7.3,5,12,5c3.1,0,6-0.8,8.7-2.4c2.7-1.6,4.7-3.8,6.1-6.7l-7.7-2.2c-0.9,1.6-2,2.8-3.4,3.6c-1.4,0.8-2.9,1.2-4.7,1.2 c-2.7,0-5-0.9-6.8-2.8c-1.8-1.9-2.7-4.2-2.7-7c0-2.9,0.9-5.3,2.7-7.1c1.8-1.9,4.1-2.8,6.8-2.8c2.7,0,5,0.9,6.9,2.8l5.4-5.4 C215,28.5,213.3,26.8,210,31.8z"/>
    
    <!-- I -->
    <path class="logo-text" d="M236.5,27.7v32h8.9v-32H236.5z"/>
    
    <!-- O -->
    <path class="logo-text" d="M275.7,31.8c-3.3-3.3-7.3-5-12.1-5c-4.7,0-8.7,1.7-12,5c-3.3,3.3-5,7.3-5,12c0,4.7,1.7,8.6,5,11.9 c3.3,3.3,7.3,5,12,5c4.7,0,8.7-1.7,12.1-5c3.3-3.3,5-7.3,5-11.9C280.7,39.1,279,35.1,275.7,31.8z M271.1,50.9 c-1.9,2-4.3,3-7.3,3c-2.9,0-5.3-1-7.2-3c-1.9-2-2.9-4.4-2.9-7.2c0-2.9,1-5.3,2.9-7.3c1.9-2,4.3-3,7.2-3c2.9,0,5.3,1,7.3,3 c1.9,2,2.9,4.4,2.9,7.3C274,46.5,273,48.9,271.1,50.9z"/>
  </g>
  
  <!-- Subtitle text -->
  <text class="subtitle" x="50" y="80">SALIENT ARABIA FOR MILITARY SUPPORT</text>
</svg>